<?xml version="1.0" encoding="UTF-8" standalone="no"?>
<!DOCTYPE svg PUBLIC "-//W3C//DTD SVG 1.1//EN"
 "http://www.w3.org/Graphics/SVG/1.1/DTD/svg11.dtd">
<!-- Generated by graphviz version 12.2.0 (20241103.1931)
 -->
<!-- Pages: 1 -->
<svg width="225pt" height="188pt"
 viewBox="0.00 0.00 224.66 188.00" xmlns="http://www.w3.org/2000/svg" xmlns:xlink="http://www.w3.org/1999/xlink">
<g id="graph0" class="graph" transform="scale(1 1) rotate(0) translate(4 184)">
<polygon fill="white" stroke="none" points="-4,4 -4,-184 220.66,-184 220.66,4 -4,4"/>
<!-- A -->
<g id="node1" class="node">
<title>A</title>
<ellipse fill="none" stroke="black" cx="48.77" cy="-162" rx="43.67" ry="18"/>
<text text-anchor="middle" x="48.77" y="-156.95" font-family="Times New Roman,serif" font-size="14.00">Burglary</text>
</g>
<!-- C -->
<g id="node3" class="node">
<title>C</title>
<ellipse fill="none" stroke="black" cx="105.77" cy="-90" rx="34.97" ry="18"/>
<text text-anchor="middle" x="105.77" y="-84.95" font-family="Times New Roman,serif" font-size="14.00">Alarm</text>
</g>
<!-- A&#45;&gt;C -->
<g id="edge1" class="edge">
<title>A&#45;&gt;C</title>
<path fill="none" stroke="black" d="M62.28,-144.41C69.26,-135.83 77.93,-125.19 85.68,-115.67"/>
<polygon fill="black" stroke="black" points="88.19,-118.13 91.79,-108.16 82.77,-113.71 88.19,-118.13"/>
</g>
<!-- B -->
<g id="node2" class="node">
<title>B</title>
<ellipse fill="none" stroke="black" cx="163.77" cy="-162" rx="52.89" ry="18"/>
<text text-anchor="middle" x="163.77" y="-156.95" font-family="Times New Roman,serif" font-size="14.00">Earthquake</text>
</g>
<!-- B&#45;&gt;C -->
<g id="edge2" class="edge">
<title>B&#45;&gt;C</title>
<path fill="none" stroke="black" d="M150.02,-144.41C142.92,-135.83 134.1,-125.19 126.21,-115.67"/>
<polygon fill="black" stroke="black" points="129.06,-113.62 119.98,-108.15 123.67,-118.09 129.06,-113.62"/>
</g>
<!-- D -->
<g id="node4" class="node">
<title>D</title>
<ellipse fill="none" stroke="black" cx="47.77" cy="-18" rx="47.77" ry="18"/>
<text text-anchor="middle" x="47.77" y="-12.95" font-family="Times New Roman,serif" font-size="14.00">John calls</text>
</g>
<!-- C&#45;&gt;D -->
<g id="edge3" class="edge">
<title>C&#45;&gt;D</title>
<path fill="none" stroke="black" d="M92.61,-73.12C85.52,-64.56 76.6,-53.8 68.59,-44.13"/>
<polygon fill="black" stroke="black" points="71.32,-41.94 62.25,-36.47 65.93,-46.41 71.32,-41.94"/>
</g>
<!-- E -->
<g id="node5" class="node">
<title>E</title>
<ellipse fill="none" stroke="black" cx="164.77" cy="-18" rx="50.84" ry="18"/>
<text text-anchor="middle" x="164.77" y="-12.95" font-family="Times New Roman,serif" font-size="14.00">Mary calls</text>
</g>
<!-- C&#45;&gt;E -->
<g id="edge4" class="edge">
<title>C&#45;&gt;E</title>
<path fill="none" stroke="black" d="M119.16,-73.12C126.45,-64.47 135.63,-53.58 143.84,-43.83"/>
<polygon fill="black" stroke="black" points="146.28,-46.37 150.05,-36.46 140.93,-41.85 146.28,-46.37"/>
</g>
</g>
</svg>
